<?xml version="1.0" standalone="no"?><!DOCTYPE svg PUBLIC "-//W3C//DTD SVG 1.1//EN" "http://www.w3.org/Graphics/SVG/1.1/DTD/svg11.dtd"><svg t="1778416000000" class="icon" viewBox="0 0 1024 1024" version="1.1" xmlns="http://www.w3.org/2000/svg" p-id="folder" width="200" height="200"><path d="M832 960H192c-70.4 0-128-57.6-128-128V192c0-70.4 57.6-128 128-128h192c38.4 0 73.6 16 96 44.8L524.8 224H832c70.4 0 128 57.6 128 128v480c0 70.4-57.6 128-128 128z" fill="#EDE9FE" p-id="folder-bg"></path><path d="M832 992H192c-88 0-160-72-160-160V192c0-88 72-160 160-160h192c48 0 92.8 20.8 124.8 56l36.8 43.2H832c88 0 160 72 160 160v480c0 88-72 160-160 160zM192 96c-52.8 0-96 43.2-96 96v544c0 52.8 43.2 96 96 96h640c52.8 0 96-43.2 96-96V352c0-52.8-43.2-96-96-96H524.8c-19.2 0-37.6-8.8-49.6-23.2L438.4 192c-16-18.4-38.4-28.8-62.4-28.8H192z" fill="#C4B5FD" p-id="folder-border"></path><path d="M576 512H448c-17.6 0-32-14.4-32-32s14.4-32 32-32h128c17.6 0 32 14.4 32 32s-14.4 32-32 32z" fill="#7C3AED" p-id="folder-line1"></path><path d="M832 960H192c-70.4 0-128-57.6-128-128V416c0-52.8 43.2-96 96-96h704c52.8 0 96 43.2 96 96v416c0 70.4-57.6 128-128 128z" fill="#EDE9FE" p-id="folder-front"></path><path d="M832 992H192c-88 0-160-72-160-160V416c0-70.4 57.6-128 128-128h704c70.4 0 128 57.6 128 128v416c0 88-72 160-160 160zM160 352c-35.2 0-64 28.8-64 64v416c0 52.8 43.2 96 96 96h640c52.8 0 96-43.2 96-96V416c0-35.2-28.8-64-64-64H160z" fill="#C4B5FD" p-id="folder-front-border"></path><path d="M640 608H384c-17.6 0-32-14.4-32-32s14.4-32 32-32h256c17.6 0 32 14.4 32 32s-14.4 32-32 32z" fill="#7C3AED" p-id="folder-line2"></path></svg>